# xmcd CD database file
#
# Track frame offsets:
#	150
#	22400
#	47523
#	80092
#	113385
#	138107
#	171531
#	208497
#	238189
#	257442
#	277805
#	292232
#
# Disc length: 4234 seconds
#
# Revision: 0
# Processed by: cddbd v1.5.2PL0 Copyright (c) Steve Scherf et al.
# Submitted via: CDex 1.51
#
DISCID=b510880c
DTITLE=John Scofield - This Meets That
DYEAR=2007
DGENRE=Jazz
TTITLE0=The Low Road
TTITLE1=Down D
TTITLE2=Strangeness In The Night
TTITLE3=Heck Of A Job
TTITLE4=Behind Closed Doors
TTITLE5=House Of The Rising Sun
TTITLE6=Shoe Dog
TTITLE7=Memorette
TTITLE8=Trio Blues
TTITLE9=Pretty Out
TTITLE10=I Can't Get No Satisfaction
TTITLE11=Better New Tune
EXTD=YEAR: 2007
EXTT0=
EXTT1=
EXTT2=
EXTT3=
EXTT4=
EXTT5=
EXTT6=
EXTT7=
EXTT8=
EXTT9=
EXTT10=
EXTT11=
PLAYORDER=
